<?xml version="1.0" encoding="UTF-8" standalone="no"?>
<svg
   xmlns:dc="http://purl.org/dc/elements/1.1/"
   xmlns:cc="http://creativecommons.org/ns#"
   xmlns:rdf="http://www.w3.org/1999/02/22-rdf-syntax-ns#"
   xmlns:svg="http://www.w3.org/2000/svg"
   xmlns="http://www.w3.org/2000/svg"
   xmlns:xlink="http://www.w3.org/1999/xlink"
   xmlns:sodipodi="http://sodipodi.sourceforge.net/DTD/sodipodi-0.dtd"
   xmlns:inkscape="http://www.inkscape.org/namespaces/inkscape"
   inkscape:version="1.0 (4035a4fb49, 2020-05-01)"
   sodipodi:docname="barbero.svg"
   version="1.1"
   viewBox="0 0 853.29744 818"
   height="818"
   width="853.29744"
   data-name="Layer 1"
   id="e2652d7b-d014-44e7-aeea-709bf92e6067">
  <metadata
     id="metadata1017">
    <rdf:RDF>
      <cc:Work
         rdf:about="">
        <dc:format>image/svg+xml</dc:format>
        <dc:type
           rdf:resource="http://purl.org/dc/dcmitype/StillImage" />
        <dc:title></dc:title>
      </cc:Work>
    </rdf:RDF>
  </metadata>
  <sodipodi:namedview
     inkscape:current-layer="e2652d7b-d014-44e7-aeea-709bf92e6067"
     inkscape:window-maximized="1"
     inkscape:window-y="-9"
     inkscape:window-x="-9"
     inkscape:cy="424.22813"
     inkscape:cx="326.91373"
     inkscape:zoom="0.51295022"
     showgrid="false"
     id="namedview1015"
     inkscape:window-height="1013"
     inkscape:window-width="1920"
     inkscape:pageshadow="2"
     inkscape:pageopacity="0"
     guidetolerance="10"
     gridtolerance="10"
     objecttolerance="10"
     borderopacity="1"
     bordercolor="#666666"
     pagecolor="#ffffff" />
  <defs
     id="defs932">
    <linearGradient
       gradientUnits="userSpaceOnUse"
       y2="396.55769"
       x2="776.68053"
       y1="396.55769"
       x1="689.87057"
       id="fe5e6308-1e89-4ce8-8c8d-e7ed4a72d158">
      <stop
         id="stop926"
         stop-color="#fff"
         offset="0" />
      <stop
         id="stop928"
         stop-opacity="0.3"
         stop-color="#fff"
         offset="1" />
    </linearGradient>
    <linearGradient
       xlink:href="#fe5e6308-1e89-4ce8-8c8d-e7ed4a72d158"
       y2="535.45364"
       x2="718.08381"
       y1="535.45364"
       x1="631.27384"
       id="b0adbdce-87b5-465c-b00c-1cf2f5493111" />
    <linearGradient
       gradientTransform="translate(-225.73464,-35.485962)"
       y2="396.55769"
       x2="776.68053"
       y1="396.55769"
       x1="689.87057"
       gradientUnits="userSpaceOnUse"
       id="linearGradient1229"
       xlink:href="#fe5e6308-1e89-4ce8-8c8d-e7ed4a72d158"
       inkscape:collect="always" />
  </defs>
  <path
     id="path934"
     fill="#3f3d56"
     transform="translate(-173.35128 -41)"
     d="M880.85249,505.2494C773.13547,668.24287,722.473,859,527.10189,859S173.35128,700.62046,173.35128,505.2494,349.88639,233.74549,527.10189,151.49879C1102.708-115.64322,1121.87492,140.543,880.85249,505.2494Z" />
  <circle
     id="circle936"
     fill="#e6e6e6"
     r="66.1926"
     cy="94.22192"
     cx="669.52185" />
  <circle
     id="circle938"
     fill="#cbcbcb"
     r="7.59587"
     cy="48.64669"
     cx="663.0111" />
  <circle
     id="circle940"
     fill="#cbcbcb"
     r="7.59587"
     cy="124.60541"
     cx="676.0326" />
  <circle
     id="circle942"
     fill="#cbcbcb"
     r="5.42562"
     cy="82.28555"
     cx="705.33096" />
  <circle
     id="circle944"
     fill="#cbcbcb"
     r="17.36199"
     cy="99.64754"
     cx="643.47886" />
  <circle
     id="circle946"
     fill="#6c63ff"
     r="10.85125"
     cy="196.22363"
     cx="441.64569" />
  <circle
     id="circle948"
     fill="#6c63ff"
     r="10.85125"
     cy="224.43687"
     cx="732.45907" />
  <circle
     id="circle950"
     fill="#e6e6e6"
     r="6.51075"
     cy="245.05424"
     cx="603.32925" />
  <circle
     id="circle952"
     fill="#e6e6e6"
     r="6.51075"
     cy="450.14278"
     cx="102.00171" />
  <circle
     id="circle954"
     fill="#e6e6e6"
     r="6.51075"
     cy="624.84783"
     cx="487.22092" />
  <polygon
     id="polygon956"
     fill="#6c63ff"
     points="589.224 438.245 585.975 441.473 582.747 438.223 580.581 440.375 583.808 443.625 580.558 446.852 582.71 449.019 585.96 445.791 589.188 449.041 591.354 446.889 588.126 443.639 591.376 440.412 589.224 438.245" />
  <polygon
     id="polygon958"
     fill="#e6e6e6"
     points="158.43 544.588 155.18 547.815 151.953 544.565 149.786 546.717 153.014 549.967 149.764 553.194 151.916 555.361 155.165 552.133 158.393 555.383 160.56 553.231 157.332 549.982 160.582 546.754 158.43 544.588" />
  <polygon
     id="polygon960"
     fill="#e6e6e6"
     points="184.473 355.776 181.223 359.003 177.996 355.754 175.829 357.905 179.057 361.155 175.807 364.383 177.959 366.549 181.208 363.322 184.436 366.571 186.603 364.42 183.375 361.17 186.625 357.942 184.473 355.776" />
  <polygon
     id="polygon962"
     fill="#e6e6e6"
     points="751.993 155.028 748.743 158.255 745.516 155.006 743.349 157.157 746.577 160.407 743.327 163.635 745.479 165.801 748.729 162.574 751.956 165.823 754.123 163.672 750.895 160.422 754.145 157.194 751.993 155.028" />
  <polygon
     id="polygon964"
     fill="#e6e6e6"
     points="495.904 245.093 492.654 248.321 489.426 245.071 487.26 247.223 490.487 250.472 487.238 253.7 489.389 255.867 492.639 252.639 495.867 255.889 498.033 253.737 494.806 250.487 498.055 247.26 495.904 245.093" />
  <polygon
     id="polygon998"
     points="394.443 379.067 394.725 379.631 394.443 380.152 394.443 379.067" />
  <g
     transform="matrix(0.5958546,0,0,0.56634498,-2.6042149,369.754)"
     id="g1077">
    <path
       id="path926"
       fill="#fbbebe"
       transform="translate(-28,-92.59)"
       d="m 856.58,256.72 c -7.54,3.18 -15.1,6.37 -22.12,10.57 -3.19,1.9 -6.25,4 -9.53,5.73 -3.53,1.88 -7.28,3.3 -11,4.82 a 245.21,245.21 0 0 0 -29.84,14.62 c 0.83,-10.75 -0.74,-22.43 -7.17,-30.81 a 27,27 0 0 0 -3.14,-3.46 c -4.55,-4.22 -11,-5.31 -15.47,-9 2.72,-4.78 8.76,-9.12 12.87,-12.77 q 6.66,-5.89 13.82,-11.17 a 196.76,196.76 0 0 1 30.35,-18.43 c 6.76,-3.31 13.82,-6.27 21.28,-7.28 a 4.62,4.62 0 0 1 2.81,0.25 c 1.16,0.64 1.58,2.08 1.86,3.37 1.39,6.45 2.1,13.07 3.26,19.57 a 83.48,83.48 0 0 0 2.31,9.89 120.66,120.66 0 0 0 4.31,11.31 q 2.71,6.39 5.4,12.79 z" />
    <path
       id="path928"
       fill="#be6f72"
       transform="translate(-28,-92.59)"
       d="M 642.57,439 A 63,63 0 0 1 528.8,476.29 62.84,62.84 0 0 1 516.57,439 a 63,63 0 0 1 126,0 z" />
    <path
       id="path930"
       fill="#be6f72"
       transform="translate(-28,-92.59)"
       d="m 557,494.52 c 3.37,5.81 6.77,11.67 8.93,18 2.16,6.33 3,13.34 1.22,19.81 21.46,-11.3 47,-10.39 70.62,-16.11 a 2.54,2.54 0 0 0 1.63,-0.86 2.59,2.59 0 0 0 0,-2.08 172.89,172.89 0 0 1 -5.63,-56.2 l -12.33,7.29 a 157.84,157.84 0 0 1 -16.75,9 c -8.15,3.57 -16.8,5.73 -25.31,8.23 -6.74,2 -20.12,4.59 -24.36,10.48 a 11.9,11.9 0 0 1 1.98,2.44 z" />
    <path
       id="path932"
       fill="#3f3d56"
       transform="translate(-28,-92.59)"
       d="m 522.29,409.8 c -4.1,1.65 -8.92,3.55 -12.69,1.24 -2.77,-1.71 -3.91,-5.26 -3.74,-8.51 0.17,-3.25 1.41,-6.33 2.39,-9.43 2,-6.37 3.08,-13 5.31,-19.34 2.23,-6.34 5.87,-12.45 11.65,-15.8 10.64,-6.16 24.41,-1.07 36.22,-4.48 5,-1.43 9.35,-4.31 14,-6.57 4.65,-2.26 9.88,-4 14.9,-2.79 5.88,1.37 10.22,6.32 15.7,8.84 6,2.76 13.18,2.57 18.64,6.26 3.87,2.62 6.31,6.85 8.48,11 a 208.81,208.81 0 0 1 16.35,41.9 63.54,63.54 0 0 1 2.67,16 c 0.05,6.94 -1.83,13.74 -3.69,20.44 l -3,10.6 c -1.11,4 -2.25,8 -4.35,11.62 -2.1,3.62 -5.34,6.67 -9.35,7.72 -5,1.29 -10.82,-1.21 -13,-5.89 -1.34,-2.9 -1.28,-6.22 -1.35,-9.41 a 104.74,104.74 0 0 0 -2,-18.6 c -0.62,-3.07 -1.45,-6.26 -3.54,-8.58 -2.7,-3 -7,-4 -11,-4.07 -4.68,-0.06 -9.81,1.21 -12.54,5 -2.19,3.06 -2.57,7.36 -5.48,9.75 a 9.07,9.07 0 0 1 -4.45,1.81 14.87,14.87 0 0 1 -15.73,-9.45 c -0.92,-2.64 -1.37,-5.92 -3.87,-7.16 -1.3,-0.65 -2.85,-0.53 -4.24,-0.95 -4.26,-1.29 -5.38,-6.69 -5.77,-11.12 -0.45,-5.19 1.28,-15.44 -5.17,-15.79 -6.95,-0.38 -14.96,3.63 -21.35,5.76 z" />
    <path
       id="path934-0"
       fill="#3f3d56"
       transform="translate(-28,-92.59)"
       d="m 537.4,478.09 c -2.22,1.07 -4.65,2.32 -5.52,4.62 -0.34,0.9 -0.4,1.89 -0.71,2.81 -1.41,4.07 -6.91,4.87 -9.75,8.11 a 12.77,12.77 0 0 0 -2.51,5.61 40.68,40.68 0 0 0 1.76,24.24 19.56,19.56 0 0 0 4,6.6 c 5.08,5.18 13.84,5.08 20.17,1.55 6.33,-3.53 10.7,-9.72 14.41,-16 a 55.68,55.68 0 0 0 4.91,-10 61,61 0 0 0 2.43,-10.89 c 2.22,-14.41 5.12,-30.39 4.12,-45 -3,-0.19 -8.73,-0.4 -11.38,1.48 -3.32,2.36 -2.4,7.12 -3.6,10.57 -2.84,8.3 -11.08,12.68 -18.33,16.3 z" />
    <path
       id="path936"
       fill="#3f3d56"
       transform="translate(-28,-92.59)"
       d="m 540,480 c -3.75,0.23 -10.47,-3.92 -14.23,-3.71 A 117.11,117.11 0 0 1 519,462.43 c 2,-2.87 5.22,-3.57 10.09,0 3.91,2.75 9.31,12.26 10.91,17.57 z" />
    <path
       id="path938"
       fill="#e8e8f0"
       transform="translate(-28,-92.59)"
       d="m 596.53,322 c -4.07,2.15 -6.59,2.25 -8.6,1.82 -2.01,-0.43 -6,1.57 -6,1.57 -35.25,12.06 -36.64,17.75 -36.64,17.75 l 40.81,-14.41 c 7.85,-3.44 8,-2.23 8,-2.23 6,5.64 13.64,1.82 13.64,1.82 0,0 10.57,-5 7.46,-9.81 -3.11,-4.81 -14.59,1.38 -18.67,3.49 z m 17,-0.9 c 0,0 -3,8 -13.79,6.7 0,0 -5.3,-0.78 -3.06,-4.73 0,0 11,-4.62 13.91,-4.29 2.91,0.33 2.91,2.36 2.91,2.36 z" />
    <path
       id="path940"
       opacity="0.1"
       transform="translate(-28,-92.59)"
       d="m 596.53,322 c -4.07,2.15 -6.59,2.25 -8.6,1.82 -2.01,-0.43 -6,1.57 -6,1.57 -35.25,12.06 -36.64,17.75 -36.64,17.75 l 40.81,-14.41 c 7.85,-3.44 8,-2.23 8,-2.23 6,5.64 13.64,1.82 13.64,1.82 0,0 10.57,-5 7.46,-9.81 -3.11,-4.81 -14.59,1.38 -18.67,3.49 z m 17,-0.9 c 0,0 -3,8 -13.79,6.7 0,0 -5.3,-0.78 -3.06,-4.73 0,0 11,-4.62 13.91,-4.29 2.91,0.33 2.91,2.36 2.91,2.36 z" />
    <path
       id="path942"
       fill="#e8e8f0"
       transform="translate(-28,-92.59)"
       d="m 598.77,299.7 c -6.1,0.2 -7.37,4.76 -7.37,4.76 a 8.79,8.79 0 0 0 -0.57,10.53 L 580,325.76 a 10.89,10.89 0 0 0 -5.06,4 c 0,0 -23.78,21 -23.43,22.91 0,0 3.88,2 28.49,-20.43 l 6.46,-5.72 c 0,0 1.43,-10.69 11.52,-12.72 0,0 1,0.44 1.53,-1.94 a 11.34,11.34 0 0 1 2.23,-3.07 c 1.34,-1.24 3.13,-9.3 -2.97,-9.09 z m 1.71,7.23 c 0,0 -3.27,8.44 -7.93,6 -4.66,-2.44 -0.13,-8.07 -0.13,-8.07 8.08,-7.86 8.06,2.07 8.06,2.07 z" />
    <circle
       id="circle944-9"
       opacity="0.1"
       r="1.29"
       cy="236.08"
       cx="552.21002" />
    <path
       id="path946"
       fill="#fbbebe"
       transform="translate(-28,-92.59)"
       d="M 693.06,287.88 A 85.16,85.16 0 0 0 681.37,282.8 77.82,77.82 0 0 0 665,280 q -26.26,-2.5 -52.68,-2.9 c -3.11,0 -6.29,-0.07 -9.24,1 a 19.71,19.71 0 0 0 -7,4.59 34.85,34.85 0 0 0 -8,11.58 5.14,5.14 0 0 0 -0.5,3.58 c 0.4,1.16 2,1.93 2.91,1.11 a 14.91,14.91 0 0 0 -4.88,16.04 9.11,9.11 0 0 0 -4.87,7.5 47.69,47.69 0 0 0 21.86,-1.06 c -2.12,-0.54 -4.31,1.45 -4.44,3.63 a 5.94,5.94 0 0 0 3.31,5.25 13.29,13.29 0 0 0 6.36,1.26 c 8.47,0 16.71,-2.87 25.16,-3.24 6.46,-0.29 13.12,0.88 19.29,-1 7.16,-2.22 13.55,-8.51 20.93,-7.2 5.89,1.05 9.73,6.52 13.57,11.1 6.14,7.31 13.73,13.23 21.26,19.1 5.8,4.52 11.86,9.16 19.05,10.69 a 10.58,10.58 0 0 0 6.52,-0.31 11.13,11.13 0 0 0 4.24,-4 c 7.75,-11 7.76,-24.85 7.31,-37.74 -0.23,-6.59 -1.67,-7.48 -7.77,-10.21 Q 726.77,304 716.23,299 704.59,293.56 693.06,287.88 Z" />
    <path
       id="path948"
       fill="#e8e8f0"
       transform="translate(-28,-92.59)"
       d="m 774.11,312.56 a 21.09,21.09 0 0 1 -3.76,1.77 c -2.19,0.52 -4.42,-0.41 -6.55,-1.13 -9,-3 -19,-2.29 -27.7,-6 a 63,63 0 0 1 -10.39,46.85 c -1.8,2.56 -4.17,5.18 -7.29,5.38 1.39,4.27 5.67,6.85 9.73,8.77 a 104.46,104.46 0 0 0 20.24,7.14 c 2,0.47 4.44,0.7 5.6,-1 0.7,-1 1,-2.71 2.23,-2.65 1.88,2 1.26,6.1 3.86,7 a 5,5 0 0 0 2.47,0 l 5.8,-1 a 10.63,10.63 0 0 0 4.88,-1.68 9.56,9.56 0 0 0 2.23,-2.84 c 6.5,-11.07 9,-23.88 10,-36.53 0.49,-6.28 1.1,-12.94 0.67,-19.24 -0.4,-5.4 -7.32,-7.03 -12.02,-4.84 z" />
    <path
       id="path950"
       opacity="0.1"
       transform="translate(-28,-92.59)"
       d="m 774.11,312.56 a 21.09,21.09 0 0 1 -3.76,1.77 c -2.19,0.52 -4.42,-0.41 -6.55,-1.13 -9,-3 -19,-2.29 -27.7,-6 a 63,63 0 0 1 -10.39,46.85 c -1.8,2.56 -4.17,5.18 -7.29,5.38 1.39,4.27 5.67,6.85 9.73,8.77 a 104.46,104.46 0 0 0 20.24,7.14 c 2,0.47 4.44,0.7 5.6,-1 0.7,-1 1,-2.71 2.23,-2.65 1.88,2 1.26,6.1 3.86,7 a 5,5 0 0 0 2.47,0 l 5.8,-1 a 10.63,10.63 0 0 0 4.88,-1.68 9.56,9.56 0 0 0 2.23,-2.84 c 6.5,-11.07 9,-23.88 10,-36.53 0.49,-6.28 1.1,-12.94 0.67,-19.24 -0.4,-5.4 -7.32,-7.03 -12.02,-4.84 z" />
    <path
       id="path952"
       fill="#be6f72"
       transform="translate(-28,-92.59)"
       d="m 438.88,636.93 c -2.85,-3.66 -5.78,-7.54 -10,-9.47 a 27.38,27.38 0 0 0 -7.6,-1.86 c -14.07,-2 -28.17,-4.08 -42.37,-4.47 -4.64,-0.13 -9.62,0 -13.4,2.71 -4.33,3.09 -6,8.78 -6.24,14.09 a 39.74,39.74 0 0 0 15.32,33 c 8.5,6.48 19.24,9.19 29.72,11.33 5.51,1.13 11.05,2.14 16.61,3 5.56,0.86 11.22,1.54 16.59,3.26 11.48,3.68 21.61,12 33.65,12.69 a 2.65,2.65 0 0 0 1.65,-0.28 2.8,2.8 0 0 0 1,-1.7 c 2.65,-9.35 11.84,-31.74 0,-38.28 -6.19,-3.41 -13.06,-3.56 -19.12,-7.89 -6.06,-4.33 -11.21,-10.22 -15.81,-16.13 z" />
    <path
       id="path954"
       fill="#be6f72"
       transform="translate(-28,-92.59)"
       d="m 337.79,699 c -7.79,-6.78 -18.54,-10.37 -24.2,-19 -2.49,-3.8 -3.75,-8.26 -5,-12.64 l -3.68,-13.22 a 6.89,6.89 0 0 1 -0.38,-2.53 c 0.28,-2.76 3.53,-4.07 6.27,-4.5 14,-2.18 28.58,3.46 39.06,13 10.48,9.54 17.21,22.7 21.16,36.34 a 3.41,3.41 0 0 1 0.12,2.18 3.36,3.36 0 0 1 -1.54,1.46 c -5.06,3 -11.86,7.37 -17.77,8.29 -5.91,0.92 -9.83,-5.76 -14.04,-9.38 z" />
    <path
       sodipodi:nodetypes="cccccccccc"
       style="fill:#1f2937;fill-opacity:1"
       id="path956"
       fill="#3f3d56"
       transform="translate(-28,-92.59)"
       d="m 679.57,642 41,16.41 c 8.04032,3.21527 12.51197,11.83523 10.51,20.26 l -43.30794,200.87176 -16.29056,2.33035 -19.02791,1.31871 -21.60887,0.87633 L 607.15564,883.7485 637.57,661 c 0,0 29,-24 42,-19 z" />
    <path
       sodipodi:nodetypes="cccscccccccccccccccccccccccccccccccccccccccccccccccccccc"
       id="path958"
       fill="#b91c1c"
       transform="translate(-28,-92.59)"
       d="m 719.17,626.6 c -0.76,1.66 -1.88,3.3 -1.71,5.11 0.1,1.08 0.66,2.1 0.58,3.17 -0.16,2.1 -2.59,3.27 -4.69,3.29 -2.1,0.02 -4.21,-0.66 -6.28,-0.3 -3.4,0.58 -5.7,3.71 -8.64,5.52 -4.1,2.52 -9.22,2.37 -14,2.8 -10,0.9 -19.46,4.65 -28.51,8.92 -6.15,2.9 -12.68,6.62 -15,13 -3.33,9 3.13,18.48 4.56,28 0.38331,3.20505 0.47702,6.43813 0.28,9.66 -1.05,33.62 -22.9578,144.65058 -24.8778,178.23058 l -29.93934,-1.13763 -18.19639,-1.4118 -26.32505,-3.19573 -14.66408,-1.92004 -22.82644,-4.55061 -23.74703,-5.2094 -24.01934,-7.25928 -42.90506,-14.10147 -48.41115,-21.73916 -26.91753,-14.26191 -17.7913,-11.95328 L 306.54482,786.17523 292.47,775.78 v 0 c 17.6,-30.85 35.67,-62.28 62.22,-85.87 3.93828,-3.55532 8.36268,-6.53185 13.14,-8.84 l 21.29,19 c 1.70444,1.69518 3.68207,3.09135 5.85,4.13 4,1.63 8.48,0.7 12.77,0.84 8.25,0.27 15.79,4.48 22.95,8.59 5.25166,2.85005 10.30333,6.05412 15.12,9.59 2.82,2.16 6.89,3.51 9.83,5.5 l -0.69,-35.9 c -0.07,-3.24 -0.12,-6.56 0.85,-9.65 1.88,-6 7.25,-10.24 9.83,-15.95 1.17,-2.57 1.74,-5.37 2.72,-8 1.38553,-3.38083 3.10753,-6.61376 5.14,-9.65 l 13.27,-21.32 c 3.28,-5.26 6.55,-10.52 10.11,-15.59 15.57,-22.21 36.53,-40 56.92,-57.85 -0.47367,-5.087 0.70079,-10.19152 3.35,-14.56 1.04462,-1.45444 1.91082,-3.02904 2.58,-4.69 0.43176,-1.96899 0.55657,-3.99288 0.37,-6 v -1.54 c 0.22154,-3.27006 1.58822,-6.3575 3.86,-8.72 2.34,-2.43 5.47,-3.91 8.55,-5.29 15.93922,-7.12829 32.51177,-12.74622 49.5,-16.78 2.71,-0.64 5.58,-1.24 8.25,-0.43 0.81,2.61 3.57,3.53 6.33,4.19 l 1.77,0.41 c 4.6873,1.01223 9.05901,3.14661 12.74,6.22 3.87,3.38 6.53,7.9 9.12,12.35 19.47,33.43 28.44,77.29 58.56,101.58 1.46,1.15 1.16,3.45 0.4,5.05 z" />
    <path
       id="path960"
       opacity="0.1"
       transform="translate(-28,-92.59)"
       d="m 842,216 c -10.54,23.17 -31.31,46 -58.43,46 a 66,66 0 0 1 -6.63,-0.33 27,27 0 0 0 -3.14,-3.46 c -4.55,-4.22 -11,-5.31 -15.47,-9 2.72,-4.78 8.76,-9.12 12.87,-12.77 q 6.66,-5.89 13.82,-11.17 a 196.76,196.76 0 0 1 30.35,-18.43 c 6.76,-3.31 13.82,-6.27 21.28,-7.28 a 4.62,4.62 0 0 1 2.81,0.25 c 1.16,0.64 1.58,2.08 1.86,3.37 1.39,6.4 -0.48,6.32 0.68,12.82 z" />
    <circle
       id="circle962"
       fill="#fbbebe"
       r="67"
       cy="100.4"
       cx="755.57001" />
    <path
       id="path964"
       fill="#e8e8f0"
       transform="translate(-28,-92.59)"
       d="m 923.1,415.82 a 121.77,121.77 0 0 1 -5.68,23.79 c -1,2.81 -2.23,5.55 -3.5,8.25 -7.45,15.79 -11.54,32.86 -13.49,50.22 a 27.77,27.77 0 0 1 -0.75,4.05 c -1.47,5.6 -4.57,10.6 -6.94,15.87 a 129.24,129.24 0 0 0 -6,17.53 9.78,9.78 0 0 0 -0.56,4.71 c 0.37,1.69 1.59,3 2.45,4.53 4.44,7.65 -0.69,17 -2.42,25.66 -0.59,3 -0.85,6.26 -2.8,8.6 -1.66,2 -4.24,2.92 -6.69,3.76 a 757.3,757.3 0 0 1 -106.94,27.84 c -5.41,1 -11,1.93 -16.37,0.93 -5.37,-1 -10.72,-4.32 -12.56,-9.5 -1.06,-3 -0.88,-6.26 -0.79,-9.44 0.2,-6.68 0,-13.4 -0.36,-20.13 -1.16,-22.15 -3.79,-44.38 2,-65.6 1.73,-6.26 4.17,-12.3 6.13,-18.49 3.83,-12.07 4.82,-24.55 5.78,-37.07 0.79,-10.32 1.56,-20.68 3.87,-30.86 1.72,-7.59 0.58,-15.48 0.48,-23.26 a 87.59,87.59 0 0 1 15,-50 c 1.73,-2.55 3.63,-5.07 4.54,-8 1.28,-4.2 0.4,-8.71 -0.18,-13.07 a 91.76,91.76 0 0 1 1.74,-33.31 34,34 0 0 1 4.61,-11.49 c 2.49,-3.63 6.06,-6.37 9.63,-8.95 a 253,253 0 0 1 67.83,-34.75 c 2.23,5.64 4.37,12.23 6.08,18 0.23,0.78 0.39,1.77 -0.25,2.27 -0.64,0.5 -1.3,0.23 -2,0.25 a 3.6,3.6 0 0 0 -3.09,2.65 6.54,6.54 0 0 0 0.38,4.24 c 1.36,3.5 4.29,6.11 7.11,8.58 L 883.54,286 a 34.71,34.71 0 0 0 5.53,4.22 c 1.78,1 3.72,1.71 5.55,2.63 7.34,3.71 12.41,10.94 15.24,18.66 2.83,7.72 1.55,17 5.24,24.33 12.26,24.3 12.16,53.05 8,79.98 z" />
    <path
       sodipodi:nodetypes="ccccccccccsccccccccsccc"
       style="fill:#1f2937;fill-opacity:1"
       id="path970"
       fill="#3f3d56"
       transform="translate(-28,-92.59)"
       d="m 873.34,573.83 c -16.38,-2.62 -32.25,5.63 -48.07,10.64 -24.17,7.65 -50.78,8.12 -73.11,20.13 -1.99476,0.95991 -3.80292,2.26693 -5.34,3.86 -1.81236,2.24414 -2.95294,4.95518 -3.29,7.82 -0.99808,6.33387 0.22806,12.81793 3.47,18.35 1.39,2.36 3.14,4.53 4.22,7.06 2.56,6 0.85,12.92 0.41,19.48 -1,14.65 4.68,28.91 5.82,43.55 0.68,8.63 -0.21,17.45 1.82,25.87 1.27,5.28 3.66,10.26 4.65,15.6 0.99,5.34 0.56,10.56 0.89,15.84 0.93,15.13 3.01457,82.9699 1.33457,98.0399 l 22.27713,-9.77081 20.50619,-9.52545 27.76406,-16.93354 53.82924,-41.32892 C 891.73354,766.06389 892.12,773.25 896.49,756.36 c 1.51642,-5.34063 3.40093,-10.56981 5.64,-15.65 7.27,-17.57 14.74,-35.19 18.75,-53.77 4.01,-18.58 4.37,-38.42 -2.42,-56.18 -7.56,-19.8 -23.63,-36.27 -27.13,-57.17 -6,-0.8 -11.98,1.2 -17.99,0.24 z" />
    <path
       id="path972"
       fill="#3f3d56"
       transform="translate(-28,-92.59)"
       d="m 736.91,160.31 c -1.26,-2.64 -4.83,-4.38 -7.23,-2.71 -2.4,1.67 -2.09,5.4 -2.68,8.4 -1.14,5.9 -7,9.92 -13,10.86 -2.81,0.45 -5.94,0.27 -8.12,-1.55 a 11.3,11.3 0 0 1 -3,-4.89 c -6,-16 -2.35,-34.68 7.47,-48.64 A 34.23,34.23 0 0 1 718,113.6 c 8.27,-6 19.33,-6 29.56,-5.68 a 14,14 0 0 0 6.15,-0.71 17,17 0 0 0 4.08,-3 c 9.69,-8.52 23.08,-12.1 36,-11.53 12.92,0.57 25.35,5 36.83,10.89 5.49,2.81 10.87,6 15.17,10.44 10.33,10.63 12.85,26.38 14.88,41.06 2.18,15.84 4.35,32.12 0.68,47.69 -2.08,8.82 -6,17.44 -5.54,26.49 a 213.89,213.89 0 0 1 -25.28,5.59 c -4,0.63 -8.62,1 -11.55,-1.83 a 11.44,11.44 0 0 1 -2.64,-4.68 c -3.17,-9.37 -2.11,-20.07 -6.9,-28.73 a 24.1,24.1 0 0 0 -19.77,-12.18 c -3.14,-0.11 -6.71,0.66 -8.32,3.35 a 20.67,20.67 0 0 0 -1.42,4.12 c -2.22,6.69 -11.31,10 -17.3,6.27 -3,-1.88 -5.05,-5 -7.76,-7.34 -3.44,-2.95 -7.85,-4.47 -11.71,-6.85 -12.86,-7.97 -1.27,-16.21 -6.25,-26.66 z" />
    <path
       id="path974"
       fill="#3f3d56"
       transform="translate(-28,-92.59)"
       d="m 636.62,501 c -5.47,1.75 -10.45,4.92 -15.77,7.15 -9.37,3.91 -19.67,4.82 -29.5,7.32 a 121.18,121.18 0 0 0 -27.11,10.92 c -0.63,0.34 -2.61,2 -4.19,3.14 0,-0.51 0,-1 0,-1.54 a 13.94,13.94 0 0 1 3.86,-8.72 c 2.34,-2.43 5.47,-3.91 8.55,-5.29 A 279.3,279.3 0 0 1 622,497.23 c 2.71,-0.64 5.58,-1.24 8.25,-0.43 0.85,2.61 3.61,3.53 6.37,4.2 z" />
    <path
       id="path976"
       opacity="0.1"
       transform="translate(-28,-92.59)"
       d="m 494.85,757.45 c 10.76,12 20.41,25.1 32.93,35.22 -14.45,-19.19 -35.18,-32 -53.92,-46.47 -3.8,-2.94 -11.4,-7.11 -13.7,-11.36 -3.63,-6.66 4.39,-1.93 7.72,-0.12 10.4,5.65 19.12,13.99 26.97,22.73 z" />
    <path
       id="path978"
       opacity="0.1"
       transform="translate(-28,-92.59)"
       d="m 882,407.17 c -0.51,4.32 -2.12,8.42 -3.75,12.44 -4,10 -8.29,19.9 -14.33,28.77 -4.16,6.11 -9.11,11.63 -13.45,17.6 a 202,202 0 0 0 -12.24,19.73 Q 828,503.83 818.29,522.25 c -3.09,5.88 -6.16,11.81 -10.15,17.12 a 118,118 0 0 1 -9,10.24 c -7,7.38 -14.19,14.2 -20.45,22.2 -3.1,4 -8.27,5.54 -13.1,6.9 a 17.82,17.82 0 0 1 -5,0.9 17.26,17.26 0 0 1 -5,-1.11 126.72,126.72 0 0 1 -15.8,-6 c -1.16,-22.15 -3.79,-44.38 2,-65.6 1.73,-6.26 4.17,-12.3 6.13,-18.49 3.83,-12.07 4.82,-24.55 5.78,-37.07 1.19,-2.51 2.46,-5 3.69,-7.42 8.34,-16.48 15.37,-34.63 13.2,-53 a 99,99 0 0 1 -1.15,-10 37.68,37.68 0 0 1 2.05,-12.07 66.74,66.74 0 0 1 38,-41 21.27,21.27 0 0 1 9,-2 c 4,0.21 7.83,2.29 11.73,1.53 13.21,5.81 23.9,15.73 31.89,27.75 7.99,12.02 8.43,28.08 17.12,39.6 2.57,3.5 3.27,8.13 2.77,12.44 z" />
    <polygon
       id="polygon980"
       points="571.14,316.88 587.48,309.34 587.06,308.44 570.72,315.98 570.3,315.07 586.64,307.53 586.22,306.62 569.88,314.16 569.46,313.25 585.8,305.71 585.39,304.8 569.04,312.34 568.62,311.44 584.97,303.9 584.55,302.99 568.2,310.53 567.78,309.62 584.13,302.08 583.71,301.17 567.37,308.71 566.95,307.8 583.29,300.26 582.87,299.36 566.53,306.9 566.11,305.99 582.45,298.45 582.03,297.54 565.69,305.08 565.27,304.17 581.62,296.63 581.2,295.72 564.85,303.26 564.43,302.36 580.78,294.81 580.36,293.91 564.01,301.45 563.6,300.54 579.94,293 579.52,292.09 563.18,299.63 562.76,298.72 579.1,291.18 578.68,290.27 562.34,297.81 561.92,296.91 578.26,289.37 577.85,288.46 561.5,296 561.08,295.09 577.43,287.55 577.01,286.64 560.66,294.18 560.25,293.27 576.59,285.74 576.17,284.83 559.83,292.37 559.41,291.46 575.75,283.92 575.33,283.01 558.99,290.55 558.57,289.64 574.91,282.1 574.5,281.19 558.15,288.74 557.73,287.83 574.08,280.29 573.66,279.38 557.31,286.92 556.89,286.01 573.24,278.47 572.82,277.56 556.48,285.1 556.06,284.19 572.4,276.65 571.98,275.75 555.64,283.29 555.22,282.38 571.56,274.84 571.14,273.93 554.8,281.47 554.38,280.56 570.73,273.02 570.31,272.12 553.96,279.65 553.54,278.75 569.89,271.21 569.47,270.3 553.12,277.84 552.71,276.93 569.05,269.39 568.63,268.48 552.29,276.02 551.87,275.11 568.21,267.57 567.79,266.67 551.45,274.21 551.03,273.3 567.37,265.76 566.96,264.85 550.61,272.39 550.19,271.48 566.54,263.94 566.12,263.03 549.77,270.57 549.35,269.67 565.7,262.13 565.28,261.22 548.93,268.76 548.52,267.85 564.86,260.31 564.44,259.4 548.1,266.94 545.37,268.2 542.65,269.45 565.69,319.4 568.41,318.14 " />
    <path
       id="path982"
       opacity="0.1"
       transform="translate(-28,-92.59)"
       d="m 644.16,462.76 c -2.11,3.57 -5.34,6.67 -9.35,7.72 -5,1.29 -10.82,-1.21 -13,-5.89 -1.34,-2.9 -1.28,-6.22 -1.35,-9.41 a 104.74,104.74 0 0 0 -2,-18.6 c -0.62,-3.07 -1.45,-6.26 -3.54,-8.58 -2.7,-3 -7,-4 -11,-4.07 -4.68,-0.06 -9.81,1.21 -12.54,5 -2.19,3.06 -2.57,7.36 -5.48,9.75 a 9.07,9.07 0 0 1 -4.45,1.81 14.87,14.87 0 0 1 -15.73,-9.45 c -0.92,-2.64 -1.37,-5.92 -3.87,-7.16 -1.3,-0.65 -2.85,-0.53 -4.24,-0.95 -4.26,-1.29 -5.38,-6.69 -5.77,-11.12 -0.45,-5.19 1.28,-15.44 -5.17,-15.79 -6.9,-0.38 -14.91,3.63 -21.3,5.76 -4.1,1.65 -8.92,3.55 -12.69,1.24 -2.77,-1.71 -3.91,-5.26 -3.74,-8.51 0.17,-3.25 1.41,-6.33 2.39,-9.43 1.68,-5.24 2.69,-10.68 4.23,-16 a 47.48,47.48 0 0 0 -1.93,4.62 c -2.22,6.31 -3.26,13 -5.3,19.34 -1,3.1 -2.22,6.18 -2.39,9.43 -0.17,3.25 1,6.8 3.74,8.51 3.77,2.31 8.59,0.41 12.69,-1.24 6.39,-2.13 14.4,-6.14 21.3,-5.76 6.45,0.35 4.72,10.6 5.17,15.79 0.39,4.43 1.51,9.83 5.77,11.12 1.39,0.42 2.94,0.3 4.24,0.95 2.5,1.24 3,4.52 3.87,7.16 a 14.87,14.87 0 0 0 15.73,9.45 9.07,9.07 0 0 0 4.45,-1.81 c 2.91,-2.39 3.29,-6.69 5.48,-9.75 2.73,-3.81 7.86,-5.08 12.54,-5 4,0.06 8.35,1.06 11,4.07 2.09,2.32 2.92,5.51 3.54,8.58 a 104.74,104.74 0 0 1 2,18.6 c 0.07,3.19 0,6.51 1.35,9.41 2.17,4.68 8,7.18 13,5.89 4,-1.05 7.24,-4.15 9.35,-7.72 a 40,40 0 0 0 3.68,-9.24 c -0.22,0.46 -0.44,0.87 -0.68,1.28 z" />
    <path
       id="path984"
       fill="#fbbebe"
       transform="translate(-28,-92.59)"
       d="m 695.6,456.12 c -8,-7.68 -15.23,-16.18 -22.41,-24.66 -6.88,-8.11 -13.78,-16.26 -19.32,-25.33 -3.43,-5.61 -6.49,-11.73 -11.76,-15.66 -4,-3 -8.89,-4.4 -13.31,-6.69 -3.18,-1.65 -6.11,-3.74 -9.25,-5.45 a 44,44 0 0 0 -22.34,-5.27 c -3.23,0.11 -6.9,0.86 -8.56,3.64 -0.57,0.95 -0.84,2.06 -1.42,3 -1.79,3 -6.1,3.85 -7.57,7 -2.48,5.3 5,10.17 5.47,16 0.22,2.92 -1.39,5.64 -1.86,8.53 -0.8,5 1.79,9.77 4.29,14.13 5.35,9.34 11.86,19.57 22.37,21.92 3.72,0.83 7.65,0.56 11.28,1.74 a 26.68,26.68 0 0 1 8,4.77 131,131 0 0 1 25.84,27.21 c 3.38,4.77 6.44,9.75 9.85,14.49 a 117.8,117.8 0 0 0 41.57,35.74 l 12.27,-39 c 1.89,-6 3.38,-14.23 -2,-18.91 -6.74,-6.07 -14.51,-10.86 -21.14,-17.2 z" />
    <path
       id="path986"
       fill="#e8e8f0"
       transform="translate(-28,-92.59)"
       d="m 829.17,322.42 c -3.9,0.75 -7.77,-1.32 -11.73,-1.53 a 21.21,21.21 0 0 0 -9,2 66.78,66.78 0 0 0 -38,41 38.06,38.06 0 0 0 -2.02,12.11 c 0.06,3.35 0.76,6.65 1.15,10 2.17,18.34 -4.86,36.5 -13.19,53 -4.61,9.11 -9.81,18.72 -8.72,28.87 0.14,1.36 0.36,2.89 -0.47,4 -1,1.32 -3.16,1.39 -4.09,2.78 -0.93,1.39 -0.08,3.49 -0.82,5.06 -1,2.22 -4.26,1.95 -6.59,1.16 a 53,53 0 0 1 -17.43,-9.9 c -8.31,4.85 -17.2,10.63 -19.93,19.85 A 44.05,44.05 0 0 0 697,498 l -4.29,35.8 c -0.57,4.74 -0.85,10.3 2.73,13.46 6.17,5.46 17.16,-1.61 23.76,3.33 1.69,1.26 2.79,3.14 4,4.85 7.21,9.89 19.62,14.24 31.26,18 a 17.57,17.57 0 0 0 5,1.1 17,17 0 0 0 5,-0.9 c 4.84,-1.36 10,-2.94 13.1,-6.89 6.27,-8 13.46,-14.82 20.46,-22.2 a 121.26,121.26 0 0 0 9,-10.24 c 4,-5.32 7.06,-11.25 10.15,-17.13 q 9.69,-18.42 19.92,-36.54 A 201.75,201.75 0 0 1 849.44,461 c 4.35,-6 9.29,-11.5 13.45,-17.6 6,-8.88 10.31,-18.82 14.33,-28.77 1.63,-4 3.24,-8.13 3.76,-12.44 0.52,-4.31 -0.18,-8.94 -2.8,-12.41 -8.69,-11.53 -9.12,-27.58 -17.11,-39.6 -7.99,-12.02 -18.68,-21.96 -31.9,-27.76 z" />
    <path
       id="path988"
       fill="#3f3d56"
       transform="translate(-28,-92.59)"
       d="m 593.13,357 a 1.89,1.89 0 0 0 -0.86,1.35 c 0,0.5 0.41,0.89 0.63,1.34 0.61,1.28 -0.37,2.76 -1.49,3.64 -1.12,0.88 -2.48,1.56 -3.09,2.85 a 1,1 0 0 0 -0.12,0.56 1.2,1.2 0 0 0 0.44,0.66 5.45,5.45 0 0 0 2.47,1.62 c 1.53,0.32 3,-0.69 4.3,-1.52 a 23.28,23.28 0 0 1 4.48,-2.2 4.37,4.37 0 0 0 1.35,-0.67 3,3 0 0 0 0.87,-1.86 c 0.34,-2.51 -1,-4.92 -2.53,-7 -1.84,-2.45 -4.88,-0.12 -6.45,1.23 z" />
    <rect
       id="rect990"
       fill="#3f3d56"
       transform="rotate(27.04,552.44167,549.50598)"
       rx="1.54"
       height="61.27"
       width="119.62"
       y="623.51001"
       x="314.13" />
    <rect
       id="rect992"
       fill="#e8e8f0"
       transform="rotate(27.04,552.56144,549.45519)"
       height="49.98"
       width="100.54"
       y="629.09003"
       x="323.79999" />
    <ellipse
       id="ellipse994"
       fill="#e6e8ec"
       transform="rotate(-62.96,236.24611,606.0426)"
       ry="1.65"
       rx="1.09"
       cy="629.44"
       cx="325.81" />
    <ellipse
       id="ellipse996"
       fill="#e6e8ec"
       transform="rotate(-62.96,333.21914,655.65348)"
       ry="2.72"
       rx="1.79"
       cy="679.06"
       cx="422.76999" />
    <g
       id="g1002"
       opacity="0.1">
      <path
         id="path998"
         transform="translate(-28,-92.59)"
         d="m 861.33,195.72 c -2.08,8.82 -6,17.44 -5.54,26.49 a 213.89,213.89 0 0 1 -25.28,5.59 c -4,0.63 -8.62,1 -11.55,-1.83 a 11.44,11.44 0 0 1 -2.64,-4.68 c -3.17,-9.37 -2.11,-20.07 -6.9,-28.73 a 24.1,24.1 0 0 0 -19.77,-12.18 c -3.14,-0.11 -6.71,0.66 -8.32,3.35 a 20.67,20.67 0 0 0 -1.42,4.12 c -2.22,6.69 -11.31,10 -17.3,6.27 -3,-1.88 -5.05,-5 -7.76,-7.34 -3.44,-2.95 -7.85,-4.47 -11.71,-6.85 -3.48,-2.14 -5.15,-4.3 -5.86,-6.53 -0.88,4.81 -1.13,9.23 5.86,13.53 3.86,2.38 8.27,3.9 11.71,6.85 2.71,2.32 4.72,5.46 7.76,7.34 6,3.71 15.08,0.42 17.3,-6.27 a 20.67,20.67 0 0 1 1.42,-4.12 c 1.61,-2.69 5.18,-3.46 8.32,-3.35 a 24.1,24.1 0 0 1 19.77,12.18 c 4.79,8.66 3.73,19.36 6.9,28.73 A 11.44,11.44 0 0 0 819,233 c 2.93,2.8 7.56,2.46 11.55,1.83 a 213.89,213.89 0 0 0 25.28,-5.59 c -0.49,-9.05 3.46,-17.67 5.54,-26.49 a 84,84 0 0 0 1.91,-22 77.18,77.18 0 0 1 -1.95,14.97 z" />
      <path
         id="path1000"
         transform="translate(-28,-92.59)"
         d="m 737.88,163.11 a 15.63,15.63 0 0 0 -1,-9.8 c -1.26,-2.64 -4.83,-4.38 -7.23,-2.71 -2.4,1.67 -2.06,5.4 -2.65,8.4 -1.14,5.9 -7,9.92 -13,10.86 -2.81,0.45 -5.94,0.27 -8.12,-1.55 a 11.3,11.3 0 0 1 -3,-4.89 46.46,46.46 0 0 1 -2.77,-12.94 47.64,47.64 0 0 0 2.77,19.94 11.3,11.3 0 0 0 3,4.89 c 2.18,1.82 5.31,2 8.12,1.55 5.93,-0.94 11.82,-5 13,-10.86 0.57,-3 0.18,-6.63 2.66,-8.35 2.48,-1.72 6,0.07 7.23,2.71 a 13.52,13.52 0 0 1 0.99,2.75 z" />
    </g>
  </g>
  <path
     id="path968"
     fill="url(#b0adbdce-87b5-465c-b00c-1cf2f5493111)"
     opacity="0.8"
     transform="translate(-173.35128 -41)"
     d="M633.19662,585.88737l32.97057-38.59855,32.97057-38.59855,18.61242-21.7895c1.02981-1.2056-.55937-3.08643-1.58915-1.88087l-32.97057,38.59855L650.21989,562.217l-18.61242,21.7895c-1.02981,1.2056.55937,3.08643,1.58915,1.88087Z" />
  <path
     style="fill:url(#linearGradient1229)"
     id="path966"
     fill="url(#fe5e6308-1e89-4ce8-8c8d-e7ed4a72d158)"
     opacity="0.8"
     d="m 466.0587,411.50547 32.97058,-38.59855 32.97057,-38.59855 18.61242,-21.7895 c 1.02981,-1.2056 -0.55938,-3.08643 -1.58915,-1.88088 l -32.97057,38.59855 -32.97057,38.59855 -18.61242,21.78951 c -1.02982,1.2056 0.55937,3.08642 1.58914,1.88087 z" />
</svg>
